<svg width="35" height="35" viewBox="0 0 35 35" fill="none" xmlns="http://www.w3.org/2000/svg">
<g id="icon/instagram">
<path id="vector" fillRule="evenodd" clipRule="evenodd" d="M17.5 4.375C13.9353 4.375 13.489 4.38988 12.089 4.45375C10.6916 4.51763 9.737 4.73987 8.90225 5.0645C8.02725 5.3935 7.23362 5.90975 6.57737 6.57825C5.90994 7.23374 5.39338 8.02681 5.06362 8.90225C4.74075 9.737 4.51763 10.6925 4.45375 12.0899C4.39075 13.489 4.375 13.9344 4.375 17.5C4.375 21.0656 4.38988 21.511 4.45375 22.911C4.51763 24.3084 4.73987 25.263 5.0645 26.0977C5.3935 26.9727 5.90975 27.7664 6.57825 28.4226C7.23376 29.09 8.02682 29.6066 8.90225 29.9364C9.737 30.2601 10.6916 30.4824 12.089 30.5462C13.489 30.6101 13.9353 30.625 17.5 30.625C21.0648 30.625 21.511 30.6101 22.911 30.5462C24.3084 30.4824 25.263 30.2601 26.0977 29.9355C26.9727 29.6065 27.7664 29.0903 28.4226 28.4218C29.0901 27.7663 29.6066 26.9732 29.9364 26.0977C30.2601 25.263 30.4824 24.3084 30.5462 22.911C30.6101 21.511 30.625 21.0648 30.625 17.5C30.625 13.9353 30.6101 13.489 30.5462 12.089C30.4824 10.6916 30.2601 9.737 29.9355 8.90225C29.606 8.02643 29.0894 7.23303 28.4218 6.57737C27.7663 5.90994 26.9732 5.39338 26.0977 5.06362C25.263 4.74075 24.3075 4.51763 22.9101 4.45375C21.511 4.39075 21.0656 4.375 17.5 4.375ZM17.5 6.74013C21.0044 6.74013 21.42 6.75325 22.8043 6.81625C24.0835 6.87488 24.7782 7.0875 25.2411 7.26863C25.8536 7.50575 26.2911 7.791 26.7505 8.2495C27.2099 8.70888 27.4943 9.14637 27.7314 9.75887C27.9116 10.2217 28.1251 10.9165 28.1838 12.1957C28.2467 13.58 28.2599 13.9956 28.2599 17.5C28.2599 21.0044 28.2467 21.42 28.1838 22.8043C28.1251 24.0835 27.9125 24.7782 27.7314 25.2411C27.5213 25.8112 27.1861 26.327 26.7505 26.7505C26.3271 27.1862 25.8113 27.5214 25.2411 27.7314C24.7782 27.9116 24.0835 28.1251 22.8043 28.1838C21.42 28.2467 21.0053 28.2599 17.5 28.2599C13.9948 28.2599 13.58 28.2467 12.1957 28.1838C10.9165 28.1251 10.2217 27.9125 9.75887 27.7314C9.18877 27.5213 8.67301 27.1861 8.2495 26.7505C7.8139 26.327 7.47874 25.8112 7.26863 25.2411C7.08837 24.7782 6.87488 24.0835 6.81625 22.8043C6.75325 21.42 6.74013 21.0044 6.74013 17.5C6.74013 13.9956 6.75325 13.58 6.81625 12.1957C6.87488 10.9165 7.0875 10.2217 7.26863 9.75887C7.50575 9.14637 7.791 8.70888 8.2495 8.2495C8.67295 7.81379 9.18873 7.4786 9.75887 7.26863C10.2217 7.08837 10.9165 6.87488 12.1957 6.81625C13.58 6.75325 13.9956 6.74013 17.5 6.74013Z" fill="#505050"/>
<path id="vector_2" fillRule="evenodd" clipRule="evenodd" d="M17.5002 21.8794C16.925 21.8794 16.3556 21.7662 15.8242 21.5461C15.2929 21.326 14.8101 21.0034 14.4035 20.5967C13.9968 20.1901 13.6742 19.7073 13.4541 19.176C13.2341 18.6446 13.1208 18.0752 13.1208 17.5001C13.1208 16.925 13.2341 16.3555 13.4541 15.8241C13.6742 15.2928 13.9968 14.81 14.4035 14.4034C14.8101 13.9967 15.2929 13.6741 15.8242 13.454C16.3556 13.234 16.925 13.1207 17.5002 13.1207C18.6616 13.1207 19.7755 13.5821 20.5968 14.4034C21.4181 15.2247 21.8795 16.3386 21.8795 17.5001C21.8795 18.6615 21.4181 19.7755 20.5968 20.5967C19.7755 21.418 18.6616 21.8794 17.5002 21.8794ZM17.5002 10.7538C15.7109 10.7538 13.995 11.4646 12.7298 12.7297C11.4647 13.9949 10.7539 15.7108 10.7539 17.5001C10.7539 19.2893 11.4647 21.0052 12.7298 22.2704C13.995 23.5355 15.7109 24.2463 17.5002 24.2463C19.2894 24.2463 21.0053 23.5355 22.2705 22.2704C23.5356 21.0052 24.2464 19.2893 24.2464 17.5001C24.2464 15.7108 23.5356 13.9949 22.2705 12.7297C21.0053 11.4646 19.2894 10.7538 17.5002 10.7538ZM26.209 10.6313C26.209 11.0542 26.041 11.4599 25.742 11.7589C25.4429 12.058 25.0373 12.226 24.6143 12.226C24.1914 12.226 23.7858 12.058 23.4867 11.7589C23.1877 11.4599 23.0197 11.0542 23.0197 10.6313C23.0197 10.2084 23.1877 9.80276 23.4867 9.50369C23.7858 9.20463 24.1914 9.03662 24.6143 9.03662C25.0373 9.03662 25.4429 9.20463 25.742 9.50369C26.041 9.80276 26.209 10.2084 26.209 10.6313Z" fill="#505050"/>
</g>
</svg>
