<svg width="35" height="35" viewBox="0 0 35 35" fill="none" xmlns="http://www.w3.org/2000/svg">
<g id="icon/linkedin">
<path id="vector" d="M30.625 6.30515V28.6949C30.625 29.2068 30.4216 29.6977 30.0597 30.0597C29.6977 30.4216 29.2068 30.625 28.6949 30.625H6.30515C5.79324 30.625 5.3023 30.4216 4.94033 30.0597C4.57835 29.6977 4.375 29.2068 4.375 28.6949V6.30515C4.375 5.79324 4.57835 5.3023 4.94033 4.94033C5.3023 4.57835 5.79324 4.375 6.30515 4.375H28.6949C29.2068 4.375 29.6977 4.57835 30.0597 4.94033C30.4216 5.3023 30.625 5.79324 30.625 6.30515ZM12.0956 14.4118H8.23529V26.7647H12.0956V14.4118ZM12.443 10.1654C12.445 9.87344 12.3895 9.5839 12.2797 9.31335C12.1698 9.0428 12.0077 8.79654 11.8027 8.58863C11.5977 8.38072 11.3537 8.21524 11.0847 8.10162C10.8157 7.98801 10.5269 7.92849 10.2349 7.92647H10.1654C9.57163 7.92647 9.00214 8.16236 8.58225 8.58225C8.16236 9.00214 7.92647 9.57163 7.92647 10.1654C7.92647 10.7593 8.16236 11.3287 8.58225 11.7486C9.00214 12.1685 9.57163 12.4044 10.1654 12.4044C10.4575 12.4116 10.748 12.3612 11.0206 12.256C11.2931 12.1509 11.5422 11.993 11.7537 11.7916C11.9652 11.5901 12.135 11.3489 12.2533 11.0818C12.3715 10.8147 12.436 10.527 12.443 10.2349V10.1654ZM26.7647 19.2603C26.7647 15.5467 24.4022 14.1029 22.0551 14.1029C21.2867 14.0645 20.5215 14.2281 19.8361 14.5777C19.1506 14.9272 18.5687 15.4503 18.1485 16.0949H18.0404V14.4118H14.4118V26.7647H18.2721V20.1945C18.2163 19.5216 18.4282 18.8538 18.8619 18.3363C19.2956 17.8188 19.9159 17.4933 20.5882 17.4305H20.7349C21.9625 17.4305 22.8735 18.2026 22.8735 20.1482V26.7647H26.7338L26.7647 19.2603Z" fill="#505050"/>
</g>
</svg>
